<?xml version="1.0" encoding="UTF-8" standalone="no"?>
<svg viewBox="0 0 1200 630">
    <rect x="0" y="0" width="1200" height="630" fill="#fcd51c" />
    <g transform="translate(425, 65) scale(5)">
        <path
            d="M 42.32 12.23 C 42.32 12.23 42.34 12 42.32 12.23 C 42.13 13.95 41.64 18 41 22.43 C 40.5 25.87 39.84 30.08 38.87 35.53 C 37.91 40.91 36.75 46.93 35.45 53.1 C 34.22 58.9 32.79 65.31 31.21 70.95 C 29.75 76.17 28.18 80.65 26.59 84.46 C 25.07 88.12 23.58 91.02 22.28 93.21 C 21.63 94.3 21.05 95.19 20.5 95.9 C 19.95 96.61 19.45 97.12 19 97.45 C 18.77 97.62 18.56 97.74 18.36 97.82 C 18.15 97.9 17.95 97.95 17.76 97.96 C 17.56 97.97 17.36 97.94 17.16 97.88 C 16.95 97.81 16.73 97.71 16.51 97.56 C 16.05 97.24 15.59 96.76 15.16 96.07 C 14.71 95.37 14.31 94.46 13.96 93.32 C 13.25 90.98 12.8 87.68 12.74 83.12 C 12.72 80.82 12.79 78.19 12.98 75.33 C 13.17 72.51 13.46 69.45 13.89 66.26 C 14.69 60.15 15.98 53.39 17.87 47 C 19.68 40.91 22.06 35.12 24.8 29.82 C 27.45 24.69 30.39 20.13 33.34 16.37 C 36.22 12.69 39.06 9.84 41.9 7.68 C 44.73 5.53 47.56 4.06 50.4 3.17 C 53.28 2.26 56.13 1.95 58.61 2.25 C 59.84 2.4 60.98 2.7 61.99 3.14 C 62.98 3.58 63.83 4.15 64.49 4.83 C 65.14 5.51 65.63 6.3 65.96 7.19 C 66.28 8.08 66.45 9.07 66.47 10.14 C 66.5 12.3 65.91 14.76 64.73 17.33 C 63.51 19.99 61.72 22.66 59.09 25.36 C 56.25 28.28 52.52 31.15 47.74 34 C 45.15 35.55 42.34 37.07 39.86 38.4 C 37.09 39.9 34.58 41.24 32.34 42.58 C 31.19 43.26 30.12 43.93 29.16 44.6 C 28.2 45.27 27.32 45.95 26.59 46.64 C 25.86 47.32 25.2 48.07 24.75 48.88 C 24.52 49.28 24.33 49.73 24.21 50.2 C 24.09 50.68 24.05 51.19 24.11 51.7 C 24.17 52.17 24.31 52.62 24.51 53.03 C 24.71 53.43 24.96 53.79 25.24 54.1 C 25.78 54.71 26.47 55.2 27.19 55.6 C 27.89 55.99 28.68 56.34 29.52 56.66 C 30.33 56.97 31.2 57.25 32.11 57.54 C 33.56 58 35.76 58.65 37.44 59.26 C 38.26 59.56 39.06 59.89 39.79 60.25 C 40.49 60.59 41.11 60.96 41.63 61.36 C 42.68 62.18 43.5 63.12 44.03 64.11 C 44.54 65.06 44.78 66.06 44.72 67.06 C 44.66 68.05 44.29 69.07 43.54 70.06 C 42.77 71.07 41.6 72.03 40.01 72.84 C 39.21 73.25 38.12 73.63 36.82 73.93 C 35.47 74.25 33.92 74.47 32.27 74.56 C 28.6 74.75 24.67 74.31 20.94 73.12 C 16.3 71.63 12.51 69.16 9.53 66.1 C 5.5 61.95 3.52 57.28 2.63 54.82 C 1.95 52.97 1.56 51.42 1.46 51.03 C 1.42 50.89 1.28 50.81 1.14 50.84 C 1 50.88 0.92 51.02 0.96 51.16 C 1.06 51.54 1.48 53.14 2.14 54.99 C 3.03 57.48 4.97 62.27 9.03 66.58 C 12.03 69.76 15.88 72.38 20.64 74.01 C 24.46 75.32 28.5 75.87 32.32 75.76 C 34.04 75.71 35.66 75.53 37.1 75.25 C 38.48 74.97 39.7 74.6 40.65 74.17 C 42.42 73.37 43.85 72.36 44.89 71.17 C 45.91 70 46.53 68.68 46.72 67.28 C 46.92 65.87 46.69 64.45 46.09 63.12 C 45.48 61.74 44.5 60.48 43.27 59.4 C 42.6 58.81 41.83 58.3 41.05 57.86 C 40.22 57.4 39.34 56.99 38.48 56.63 C 36.76 55.91 34.42 55.1 33.12 54.62 C 32.24 54.29 31.45 53.98 30.75 53.67 C 30.02 53.34 29.42 53.02 28.94 52.7 C 28.45 52.36 28.15 52.07 27.98 51.83 C 27.9 51.71 27.87 51.61 27.85 51.54 C 27.83 51.46 27.84 51.41 27.85 51.35 C 27.86 51.33 27.87 51.3 27.91 51.24 C 27.94 51.17 28 51.06 28.11 50.91 C 28.33 50.6 28.71 50.21 29.31 49.72 C 29.89 49.24 30.63 48.72 31.53 48.16 C 32.41 47.6 33.41 47.02 34.53 46.4 C 36.77 45.17 39.15 43.96 42.02 42.46 C 44.52 41.15 47.41 39.62 50.13 37.98 C 55.19 34.94 59.19 31.66 62.2 28.2 C 64.98 24.98 66.77 21.75 67.86 18.56 C 68.89 15.52 69.27 12.55 68.91 9.94 C 68.73 8.64 68.38 7.44 67.84 6.36 C 67.3 5.28 66.58 4.34 65.69 3.56 C 64.8 2.77 63.75 2.16 62.6 1.7 C 61.43 1.23 60.15 0.91 58.81 0.72 C 56.13 0.34 53.05 0.44 49.87 1.1 C 46.71 1.75 43.44 2.94 40.07 4.92 C 36.68 6.91 33.25 9.66 29.81 13.33 C 26.31 17.07 22.82 21.72 19.74 27.04 C 16.55 32.55 13.84 38.7 11.93 45.26 C 9.94 52.13 8.88 59.3 8.44 65.72 C 8.21 69.07 8.15 72.28 8.21 75.24 C 8.28 78.23 8.49 80.99 8.81 83.4 C 9.43 88.21 10.51 91.72 11.76 94.21 C 12.37 95.43 13.02 96.41 13.69 97.18 C 14.35 97.93 15.02 98.48 15.7 98.87 C 16.03 99.06 16.36 99.22 16.71 99.32 C 17.05 99.43 17.4 99.49 17.77 99.5 C 18.12 99.51 18.48 99.46 18.84 99.37 C 19.2 99.27 19.55 99.13 19.91 98.94 C 20.61 98.57 21.32 98.01 22.05 97.29 C 22.78 96.58 23.55 95.69 24.36 94.63 C 26.01 92.49 27.87 89.62 29.76 85.93 C 31.72 82.11 33.65 77.54 35.37 72.2 C 37.23 66.45 38.81 59.93 39.99 54.04 C 41.23 47.86 42.21 41.52 42.84 36.11 C 43.5 30.53 43.75 26.2 43.85 22.67 C 43.96 18.57 43.86 13.61 43.86 12.31 C 43.86 12.08 43.86 12.31 43.86 12.31 C 43.88 11.89 43.56 11.52 43.13 11.5 C 42.7 11.48 42.34 11.81 42.32 12.23 Z"
            fill="currentColor" />
    </g>
</svg>